<?xml version="1.0" encoding="UTF-8" standalone="no"?>
<svg
   xmlns:dc="http://purl.org/dc/elements/1.1/"
   xmlns:cc="http://creativecommons.org/ns#"
   xmlns:rdf="http://www.w3.org/1999/02/22-rdf-syntax-ns#"
   xmlns:svg="http://www.w3.org/2000/svg"
   xmlns="http://www.w3.org/2000/svg"
   xmlns:sodipodi="http://sodipodi.sourceforge.net/DTD/sodipodi-0.dtd"
   xmlns:inkscape="http://www.inkscape.org/namespaces/inkscape"
   enable-background="new 0 0 512 512"
   id="Layer_1"
   version="1.1"
   viewBox="0 0 512 512"
   xml:space="preserve"
   inkscape:version="0.91 r13725"
   sodipodi:docname="icon.svg"><metadata
     id="metadata4214"><rdf:RDF><cc:Work
         rdf:about=""><dc:format>image/svg+xml</dc:format><dc:type
           rdf:resource="http://purl.org/dc/dcmitype/StillImage" /><dc:title></dc:title></cc:Work></rdf:RDF></metadata><defs
     id="defs4212" /><sodipodi:namedview
     pagecolor="#ffffff"
     bordercolor="#666666"
     borderopacity="1"
     objecttolerance="10"
     gridtolerance="10"
     guidetolerance="10"
     inkscape:pageopacity="0"
     inkscape:pageshadow="2"
     inkscape:window-width="2544"
     inkscape:window-height="1387"
     id="namedview4210"
     showgrid="false"
     inkscape:zoom="0.15039063"
     inkscape:cx="3414.7491"
     inkscape:cy="-231.02295"
     inkscape:window-x="0"
     inkscape:window-y="16"
     inkscape:window-maximized="0"
     inkscape:current-layer="Layer_1" /><path
     style="opacity:1;fill:#dd0058;fill-opacity:1;fill-rule:nonzero;stroke:none;stroke-width:9.84460449;stroke-linecap:butt;stroke-linejoin:miter;stroke-miterlimit:4;stroke-dasharray:none;stroke-dashoffset:0;stroke-opacity:1"
     d="M 766.80859 363.26953 L 502.00977 53.560547 L 20.884766 550.96875 L 242.51953 810.19336 A 495.0777 495.0777 0 0 0 274.06055 811.77148 A 495.0777 495.0777 0 0 0 766.80859 363.26953 z "
     id="path4237"
     inkscape:export-xdpi="21.824963"
     inkscape:export-ydpi="21.824963" /><path
     style="opacity:1;fill:#ff0066;fill-opacity:1;fill-rule:nonzero;stroke:none;stroke-width:9.84460449;stroke-linecap:butt;stroke-linejoin:miter;stroke-miterlimit:4;stroke-dasharray:none;stroke-dashoffset:0;stroke-opacity:1"
     d="M 274.06055 -178.38477 A 495.0777 495.0777 0 0 0 -221.01562 316.69336 A 495.0777 495.0777 0 0 0 242.51953 810.19336 L 20.884766 550.96875 L 502.00977 53.560547 L 766.80859 363.26953 A 495.0777 495.0777 0 0 0 769.13867 316.69336 A 495.0777 495.0777 0 0 0 274.06055 -178.38477 z "
     id="path4216"
     inkscape:export-xdpi="21.824963"
     inkscape:export-ydpi="21.824963" /><circle
     cy="316.69379"
     cx="274.06134"
     id="circle4218"
     style="opacity:1;fill:#cb0080;fill-opacity:1;fill-rule:nonzero;stroke:none;stroke-width:6.89122295;stroke-linecap:butt;stroke-linejoin:miter;stroke-miterlimit:4;stroke-dasharray:none;stroke-dashoffset:0;stroke-opacity:1"
     r="346.55438"
     inkscape:export-xdpi="21.824963"
     inkscape:export-ydpi="21.824963" /><g
     id="g4204"
     style="fill:#ffffff"
     transform="matrix(0.92857143,0,0,0.92857143,36.393483,78.979501)"
     inkscape:export-xdpi="21.824963"
     inkscape:export-ydpi="21.824963"><path
       d="M 256,512 C 187.6,512 123.3,485.4 75,437 26.7,388.6 0,324.4 0,256 0,187.6 26.6,123.3 75,75 123.4,26.7 187.6,0 256,0 c 48.5,0 95.7,13.6 136.6,39.4 28.7,18.1 53.3,41.6 72.7,69.1 l 0,-84.1 c 0,-5.8 4.7,-10.5 10.5,-10.5 5.8,0 10.5,4.7 10.5,10.5 l 0,122.3 c 0,4.9 -3.4,9.1 -8.1,10.3 -4.8,1.1 -9.7,-1.2 -11.9,-5.6 C 426.3,71 345.7,21.1 256,21.1 126.5,21.1 21.1,126.5 21.1,256 c 0,129.5 105.4,234.9 234.9,234.9 129.5,0 234.9,-105.4 234.9,-234.9 0,-5.8 4.7,-10.5 10.5,-10.5 5.8,0 10.5,4.7 10.5,10.5 0,68.4 -26.6,132.7 -75,181 -48.4,48.3 -112.5,75 -180.9,75 z"
       id="path4206"
       style="fill:#ffffff"
       inkscape:connector-curvature="0" /><path
       d="m 474.8,158.2 -117.3,0 c -5.8,0 -10.5,-4.7 -10.5,-10.5 0,-5.8 4.7,-10.5 10.5,-10.5 l 117.3,0 c 5.8,0 10.5,4.7 10.5,10.5 0,5.8 -4.7,10.5 -10.5,10.5 z"
       id="path4208"
       style="fill:#ffffff"
       inkscape:connector-curvature="0" /></g><path
     id="path4249"
     d="M 3906.8086,363.26953 3642.0098,53.560547 3160.8848,550.96875 3382.5195,810.19336 a 495.0777,495.0777 0 0 0 31.5411,1.57812 495.0777,495.0777 0 0 0 492.748,-448.50195 z"
     style="opacity:1;fill:#dd0058;fill-opacity:1;fill-rule:nonzero;stroke:none;stroke-width:9.84460449;stroke-linecap:butt;stroke-linejoin:miter;stroke-miterlimit:4;stroke-dasharray:none;stroke-dashoffset:0;stroke-opacity:1"
     inkscape:connector-curvature="0"
     inkscape:export-xdpi="27.268423"
     inkscape:export-ydpi="27.268423" /><path
     id="path4251"
     d="m 3414.0606,-178.38477 a 495.0777,495.0777 0 0 0 -495.0762,495.07813 495.0777,495.0777 0 0 0 463.5351,493.5 L 3160.8848,550.96875 3642.0098,53.560547 3906.8086,363.26953 a 495.0777,495.0777 0 0 0 2.3301,-46.57617 495.0777,495.0777 0 0 0 -495.0782,-495.07813 z"
     style="opacity:1;fill:#ff0066;fill-opacity:1;fill-rule:nonzero;stroke:none;stroke-width:9.84460449;stroke-linecap:butt;stroke-linejoin:miter;stroke-miterlimit:4;stroke-dasharray:none;stroke-dashoffset:0;stroke-opacity:1"
     inkscape:connector-curvature="0"
     inkscape:export-xdpi="27.268423"
     inkscape:export-ydpi="27.268423" /><circle
     r="346.55438"
     style="opacity:1;fill:#cb0080;fill-opacity:1;fill-rule:nonzero;stroke:none;stroke-width:6.89122295;stroke-linecap:butt;stroke-linejoin:miter;stroke-miterlimit:4;stroke-dasharray:none;stroke-dashoffset:0;stroke-opacity:1"
     id="circle4253"
     cx="3414.0613"
     cy="316.69379"
     inkscape:export-xdpi="27.268423"
     inkscape:export-ydpi="27.268423" /><g
     transform="translate(3158.0615,59.96771)"
     id="g4227"
     style="fill:#ffffff"
     inkscape:export-xdpi="27.268423"
     inkscape:export-ydpi="27.268423"><path
       style="fill:#ffffff"
       inkscape:connector-curvature="0"
       d="m 383,266.5 c -2.6,0 -5.3,-1 -7.3,-3 L 121.7,18 c -4.2,-4 -4.3,-10.7 -0.3,-14.9 4,-4.2 10.7,-4.3 14.9,-0.3 l 254,245.5 c 4.2,4 4.3,10.7 0.3,14.9 -2.1,2.3 -4.8,3.3 -7.6,3.3 z"
       id="path4229" /><path
       style="fill:#ffffff"
       inkscape:connector-curvature="0"
       d="m 129,512 c -2.8,0 -5.5,-1.1 -7.6,-3.2 -4,-4.2 -3.9,-10.9 0.3,-14.9 l 254,-245.5 c 4.2,-4 10.9,-3.9 14.9,0.3 4,4.2 3.9,10.9 -0.3,14.9 L 136.3,509 c -2,2 -4.7,3 -7.3,3 z"
       id="path4231" /></g><circle
     style="opacity:1;fill:#dd0058;fill-opacity:0;fill-rule:nonzero;stroke:none;stroke-width:9.90799999;stroke-linecap:butt;stroke-linejoin:miter;stroke-miterlimit:4;stroke-dasharray:none;stroke-dashoffset:0;stroke-opacity:1"
     id="path4315"
     cx="274.06152"
     cy="315.9043"
     r="783.50647"
     inkscape:export-xdpi="21.824963"
     inkscape:export-ydpi="21.824963" /></svg>